<?xml version="1.0" standalone="no"?><!DOCTYPE svg PUBLIC "-//W3C//DTD SVG 1.1//EN" "http://www.w3.org/Graphics/SVG/1.1/DTD/svg11.dtd"><svg t="1719803433616" class="icon" viewBox="0 0 1024 1024" version="1.1" xmlns="http://www.w3.org/2000/svg" p-id="1312" xmlns:xlink="http://www.w3.org/1999/xlink" width="200" height="200"><path d="M814.55786667 662.29589333a425.47427555 425.47427555 0 0 1 125.24657778 293.23719112 9.10222222 9.10222222 0 0 1-9.10222223 9.32067555h-68.30307555a9.02940445 9.02940445 0 0 1-9.10222222-8.88376889 339.18520889 339.18520889 0 0 0-99.83317334-232.43434666A339.11239111 339.11239111 0 0 0 512 623.4112c-91.24067555 0-176.9472 35.53507555-241.46375111 100.05162667a339.18520889 339.18520889 0 0 0-99.90599111 232.43434666 9.10222222 9.10222222 0 0 1-9.10222223 8.88376889H93.29777778a9.10222222 9.10222222 0 0 1-9.10222223-9.32067555c1.16508445-54.39488 12.37902222-107.33340445 33.49617778-157.14076445 21.69969778-50.97244445 52.50161778-96.70200889 91.7504-135.95079111a423.65383111 423.65383111 0 0 1 135.95079112-91.7504c0.50972445-0.21845333 0.94663111-0.29127111 1.45635555-0.58254222a282.09607111 282.09607111 0 1 1 330.37425778-0.14563556l1.31072 0.65536c50.97244445 21.62688 96.77482667 52.4288 136.02360889 91.7504zM373.64622222 479.66890667a194.42346667 194.42346667 0 0 0 138.35377778 57.38040888 194.42346667 194.42346667 0 0 0 138.35377778-57.38040888 194.42346667 194.42346667 0 0 0 57.30759111-138.35377778 194.42346667 194.42346667 0 0 0-57.30759111-138.35377778A194.42346667 194.42346667 0 0 0 512 145.72657778a194.42346667 194.42346667 0 0 0-138.35377778 57.30759111 194.42346667 194.42346667 0 0 0-57.38040889 138.35377778c0 52.21034667 20.38897778 101.36234667 57.38040889 138.35377778z"  p-id="1313"></path></svg>