<?xml version="1.0" standalone="no"?><!DOCTYPE svg PUBLIC "-//W3C//DTD SVG 1.1//EN" "http://www.w3.org/Graphics/SVG/1.1/DTD/svg11.dtd"><svg t="1720173180148" class="icon" viewBox="0 0 1024 1024" version="1.1" xmlns="http://www.w3.org/2000/svg" p-id="3093" xmlns:xlink="http://www.w3.org/1999/xlink" width="200" height="200"><path d="M371.419429 306.285714c0.475429-116.516571 95.012571-210.614857 211.273142-210.285714 116.260571 0.329143 210.285714 94.939429 210.102858 211.456-0.146286 116.516571-94.427429 210.870857-210.651429 210.870857-116.626286-0.256-210.944-95.195429-210.724571-212.041143z m-35.035429 0A247.186286 247.186286 0 0 1 382.537143 162.011429a174.409143 174.409143 0 0 0-189.44 173.933714 174.409143 174.409143 0 0 0 174.153143 174.592 170.788571 170.788571 0 0 0 61.147428-11.227429 247.478857 247.478857 0 0 1-92.050285-193.024zM232.009143 808.228571c0 4.754286 0.731429 9.508571 2.194286 14.006858-79.140571-12.726857-138.203429-37.814857-138.203429-75.702858a273.188571 273.188571 0 0 1 153.782857-246.125714c32.768 21.833143 70.948571 34.011429 110.299429 35.254857A352.914286 352.914286 0 0 0 232.009143 808.228571z m485.814857-295.716571a244.48 244.48 0 0 1-270.957714 0.329143A315.721143 315.721143 0 0 0 269.165714 797.257143c0 132.534857 626.834286 130.706286 626.834286 0a315.648 315.648 0 0 0-178.176-284.708572v-0.073142z" fill="#FFFFFF" p-id="3094"></path></svg>