<?xml version="1.0" standalone="no"?><!DOCTYPE svg PUBLIC "-//W3C//DTD SVG 1.1//EN" "http://www.w3.org/Graphics/SVG/1.1/DTD/svg11.dtd"><svg t="1720399134457" class="icon" viewBox="0 0 1248 1024" version="1.1" xmlns="http://www.w3.org/2000/svg" p-id="2224" xmlns:xlink="http://www.w3.org/1999/xlink" width="243.75" height="200"><path d="M738.4 668.096h-137.968v150.208c1.232 26.272-19.28 48.576-45.92 49.92-26.64-1.296-47.168-23.648-45.904-49.92v-150.208h-137.968c-26.624-1.28-47.184-23.584-45.92-49.856-1.216-26.272 19.296-48.576 45.92-49.936h137.968v-149.808c-1.216-26.272 19.296-48.592 45.92-49.952 26.656 1.28 47.216 23.648 45.92 49.952v149.808h137.952c26.672 1.28 47.232 23.632 45.92 49.936 1.28 26.272-19.28 48.592-45.92 49.856z" fill="#3371FF" p-id="2225"></path><path d="M1024.08 936.016V369.008c0-37.888-31.232-68.688-69.648-68.688H85.024v567.072c0 37.904 31.152 68.624 69.568 68.624h869.488z m58.512 83.872h-928C69.216 1019.888 0 951.616 0 867.408V218.64a158.512 158.512 0 0 1 26.432-2.208h928c85.376 0 154.592 68.272 154.592 152.48v648.736a157.824 157.824 0 0 1-26.432 2.288v-0.064z" fill="#3371FF" p-id="2226"></path><path d="M1174.016 1024V233.376c0-84.208-69.216-152.48-154.592-152.48H29.44C56.288 31.088 108.832-0.032 166.016 0h928c85.376 0 154.592 68.272 154.592 152.48v741.072c0.224 53.376-28.064 102.944-74.448 130.448h-0.16z" fill="#3371FF" p-id="2227"></path></svg>