<?xml version="1.0" standalone="no"?><!DOCTYPE svg PUBLIC "-//W3C//DTD SVG 1.1//EN" "http://www.w3.org/Graphics/SVG/1.1/DTD/svg11.dtd"><svg t="1717557069984" class="icon" viewBox="0 0 1024 1024" version="1.1" xmlns="http://www.w3.org/2000/svg" p-id="1116" xmlns:xlink="http://www.w3.org/1999/xlink" width="200" height="200"><path d="M137.83966235 100.41463013c18.96231803 0 34.9259436 14.19968875 37.16026283 33.04441076l0.23519201 4.38044266v710.92521963h710.92522046c18.96231803 0 34.9259436 14.19968875 37.16026282 33.01501218l0.2645906 4.40984125c0 18.96231803-14.19968875 34.9259436-33.04441159 37.13086422l-4.38044183 0.26459062H137.83966235A37.42485342 37.42485342 0 0 1 100.41480893 886.16015802V137.83948355C100.41480893 117.17202671 117.17220633 100.41463013 137.83966235 100.41463013z m166.28041709 498.90004843c18.99171662-0.02939858 34.9847416 14.19968875 37.18966223 33.0444116l0.20579261 4.35104324v83.19900613a37.42485342 37.42485342 0 0 1-74.55571766 4.32164465l-0.2645906-4.35104325v-83.16960753c0-20.66745603 16.7573974-37.42485342 37.42485342-37.42485342z m166.33921509-166.25101767c18.96231803 0 34.95534219 14.19968875 37.16026281 33.01501218l0.26459061 4.40984124v249.45002463a37.42485342 37.42485342 0 0 1-74.58511624 4.32164465l-0.26459061-4.32164465v-249.47942404a37.42485342 37.42485342 0 0 1 37.42485343-37.39545401zM636.71031301 100.41463013c18.99171662 0 34.9847416 14.19968875 37.18966142 33.04441076l0.23519201 4.38044266V719.85034153a37.42485342 37.42485342 0 0 1-74.58511624 4.35104406l-0.26459061-4.35104407V137.83948355c0-20.66745603 16.7573974-37.42485342 37.42485342-37.42485342z m166.30981568 166.28041708c18.99171662 0 34.9847416 14.22908816 37.16026282 33.07380936l0.26459061 4.35104406V719.85034153a37.42485342 37.42485342 0 0 1-74.58511625 4.35104406l-0.23519119-4.35104407V304.14929922c0-20.66745603 16.7573974-37.42485342 37.39545401-37.42485342z"  p-id="1117"></path><path d="M602.98972644 104.08949756q-13.99389615 13.99389615-13.99389697 33.74998599v582.36364599l0.29398919 4.93902163 0.05879801 0.29399004q2.23431922 18.8153226 16.7573974 30.95708614 14.49367877 12.14176272 33.36779938 11.05400171 18.90352002-1.11715961 31.89785257-14.84646515 12.99433254-13.75870495 13.05312973-32.72102298V137.57489294l-0.2939892-4.99782046v-0.32338861Q681.98468393 114.23213227 668.40237217 102.17856613 654.84945981 90.125 636.71031301 90.125q-19.75608902 0-33.72058657 13.96449756z m-498.90004925 0Q90.12517963 118.08339371 90.12517963 137.83948355v748.64406308l0.2939892 4.99781965 0.02939858 0.29399001q2.11672402 17.99215301 15.69903579 30.04571833 13.52351377 12.05356613 31.69205915 12.05356613h748.64406308l4.96842188-0.2939892 0.29398919-0.02939859q18.02155161-2.11672402 30.07511774-15.69903497 12.05356613-13.52351377 12.05356614-31.69205997v-0.29398919l-0.2939892-4.99782047-0.02939859-0.2939892q-2.14612263-17.99215301-15.69903579-30.04571914-13.52351377-12.05356613-31.69205915-12.05356614H185.52474649V137.51609494l-0.29398919-4.99782046v-0.2939892Q183.05523609 114.23213227 169.50232373 102.17856613 155.97880996 90.125 137.83966235 90.125 118.05417474 90.125 104.08967718 104.08949756zM609.60448831 719.58575173V137.83948355q0-11.25979514 7.93771408-19.19750921t19.19750922-7.93771491q10.31902871 0 18.05095101 6.84995389 7.58492688 6.76175647 8.8784805 16.78679599l0.20579261 3.76306402v581.8050662q-0.02939858 10.73061392-7.43793311 18.52133422-7.37913427 7.84951748-18.13914679 8.4668953-10.73061392 0.61737781-18.96231802-6.29137408-8.14350668-6.82055447-9.49585831-17.31597721l-0.23519119-3.70426603zM110.70443906 885.86616882V137.83948355Q110.70443906 126.57968841 118.64215314 118.64197434T137.83966235 110.70425943q10.28963013 0 18.02155162 6.84995388 7.58492688 6.76175647 8.87848049 16.81619458l0.2057926 3.76306486v720.92086057h721.21485059q10.31902871 0 18.02155161 6.84995306 7.6143263 6.76175647 8.87848049 16.8161954l0.23519119 3.73366544q-0.08819659 10.14263471-6.84995306 17.7275624-6.76175647 7.6143263-16.84559399 8.87848051l-3.73366626 0.23519119H137.83966235q-10.31902871 0-18.02155161-6.84995307-7.6143263-6.76175647-8.87848049-16.8161954L110.70443906 885.86616882zM769.29954211 270.34051605q-13.96449756 13.96449756-13.96449755 33.74998517v416.08322891l0.2939892 4.93902246v0.2939892q2.26371863 18.8153226 16.75739739 30.95708615 14.52307736 12.14176272 33.42659738 11.05400253 18.8741206-1.11715961 31.86845316-14.84646597 13.02373115-13.75870495 13.05313055-32.72102298V303.79651202l-0.29399002-4.93902245-0.02939859-0.2939892q-2.11672402-18.02155161-15.66963638-30.07511774-13.55291235-12.05356613-31.72145856-12.08296555-19.75608902 0-33.72058658 13.96449757z m6.61476188 449.21583628V304.11990063q0-11.25979514 7.9377149-19.19750921t19.1681098-7.93771491q10.31902871 0 18.0215516 6.87935248 7.64372488 6.76175647 8.8784805 16.84559399l0.23519203 3.70426685v415.4658511q0 10.7600125-7.4085337 18.58013142t-18.13914761 8.4374967q-10.7600125 0.61737781-18.99171661-6.29137408-8.14350668-6.82055447-9.49585832-17.3159772l-0.20579259-3.70426604z m-305.45500946-296.81172015q-19.75608902 0-33.72058659 13.96449755-13.99389615 13.96449756-13.99389614 33.72058658v249.77341323l0.2939892 4.93902164 0.058798 0.29399003q2.23431922 18.8153226 16.75739658 30.95708615 14.49367877 12.14176272 33.36779937 11.05400171 18.90352002-1.08776102 31.89785257-14.84646516 13.02373115-13.75870495 13.05313055-32.69162438v-249.77341241l-0.29399001-4.99782047-0.02939859-0.29398919q-2.14612263-17.99215301-15.69903497-30.04571915-13.52351377-12.05356613-31.69205998-12.05356614z m-19.16810981 28.51697351q7.93771408-7.93771408 19.1681098-7.93771409 10.31902871 0 18.0215516 6.84995388 7.6143263 6.76175647 8.87848051 16.81619459l0.23519202 3.76306486v249.1560346q0 10.73061392-7.40853369 18.52133422-7.40853369 7.84951748-18.13914762 8.4668953-10.7600125 0.61737781-18.99171661-6.29137408-8.14350668-6.82055447-9.49585831-17.31597721l-0.2351912-3.70426603v-249.15603542q0-11.23039572 7.93771408-19.16811062z m-180.92109046 151.69854171q-13.96449756 13.96449756-13.96449755 33.7205874v83.49299533l0.2939892 4.93902246 0.02939859 0.2939892q2.23431922 18.8153226 16.75739739 30.95708616 14.49367877 12.14176272 33.39719797 11.05400252 18.90352002-1.11715961 31.89785257-14.84646597 12.99433254-13.75870495 13.02373114-32.72102298v-83.43419732l-0.23519119-4.93902247-0.05879801-0.32338861q-2.08732462-18.0509502-15.66963637-30.13391574-13.58231094-12.05356613-31.75085715-12.05356613-19.75608902 0-33.72058659 13.99389615z m6.61476188 116.59620492v-82.87561752q0-11.23039572 7.93771408-19.16811063t19.19750922-7.93771407q10.31902871-0.02939858 18.05095102 6.84995306 7.58492688 6.76175647 8.8784805 16.8161954l0.17639319 3.70426602v82.90501694q0 10.7600125-7.40853288 18.58013223-7.37913427 7.8201189-18.13914761 8.43749588-10.73061392 0.61737781-18.99171661-6.29137325-8.14350668-6.82055447-9.46645972-17.3453758l-0.23519119-3.67486825z" p-id="1118"></path></svg>