<?xml version="1.0" standalone="no"?><!DOCTYPE svg PUBLIC "-//W3C//DTD SVG 1.1//EN" "http://www.w3.org/Graphics/SVG/1.1/DTD/svg11.dtd"><svg t="1719967435943" class="icon" viewBox="0 0 1024 1024" version="1.1" xmlns="http://www.w3.org/2000/svg" p-id="1439" xmlns:xlink="http://www.w3.org/1999/xlink" width="200" height="200"><path d="M179.95093333 936.27733333a68.26666667 68.26666667 0 0 1-100.352-60.27946666V181.99893333a102.4 102.4 0 0 1 102.4-102.4h659.79733334a102.4 102.4 0 0 1 102.4 102.4v586.20586667a102.4 102.4 0 0 1-102.4 102.4H303.24053333l-123.2896 65.67253333z m2.048-788.41173333a34.13333333 34.13333333 0 0 0-34.13333333 34.13333333v693.99893334l138.37653333-73.65973334h555.55413334a34.13333333 34.13333333 0 0 0 34.13333333-34.13333333V181.99893333a34.13333333 34.13333333 0 0 0-34.13333333-34.13333333H181.99893333z m206.16533334 260.3008l89.63413333 89.63413333 157.9008-157.9008 48.26453333 48.26453334-206.16533333 206.16533333-137.89866667-137.89866667 48.26453334-48.26453333z"   p-id="1440"></path></svg>