<?xml version="1.0" standalone="no"?><!DOCTYPE svg PUBLIC "-//W3C//DTD SVG 1.1//EN" "http://www.w3.org/Graphics/SVG/1.1/DTD/svg11.dtd"><svg t="1720403695957" class="icon" viewBox="0 0 1024 1024" version="1.1" xmlns="http://www.w3.org/2000/svg" p-id="2463" xmlns:xlink="http://www.w3.org/1999/xlink" width="200" height="200"><path d="M512.064 877.568A365.952 365.952 0 0 1 146.56 512 365.952 365.952 0 0 1 512 146.432 365.952 365.952 0 0 1 877.632 512a365.952 365.952 0 0 1-365.568 365.568z m0-680.704A315.52 315.52 0 0 0 196.928 512a315.52 315.52 0 0 0 315.136 315.136A315.52 315.52 0 0 0 827.264 512 315.52 315.52 0 0 0 512 196.864z" fill="#273356" p-id="2464"></path><path d="M650.752 512q0 6.784-0.64 13.568t-1.984 13.44q-1.344 6.72-3.328 13.248-1.984 6.528-4.608 12.8-2.56 6.336-5.76 12.288-3.2 6.016-7.04 11.712-3.84 5.632-8.128 10.88-4.288 5.312-9.088 10.112-4.864 4.8-10.112 9.152-5.248 4.352-10.88 8.128-5.76 3.776-11.712 6.976-6.016 3.2-12.288 5.76-6.336 2.688-12.8 4.672-6.592 1.92-13.248 3.264-6.656 1.344-13.44 1.984-6.784 0.64-13.632 0.64-6.784 0-13.568-0.64t-13.44-1.92q-6.72-1.408-13.248-3.328-6.528-1.984-12.8-4.608-6.272-2.56-12.288-5.824-6.016-3.2-11.712-7.04-5.632-3.712-10.88-8.064-5.312-4.352-10.112-9.152-4.8-4.8-9.152-10.048-4.288-5.312-8.064-10.944-3.84-5.696-7.04-11.712-3.2-5.952-5.76-12.288-2.624-6.272-4.608-12.8-1.984-6.528-3.328-13.184-1.28-6.72-1.984-13.44-0.64-6.848-0.64-13.632 0-6.848 0.64-13.568 0.64-6.784 1.984-13.44 1.28-6.72 3.328-13.248 1.92-6.528 4.544-12.8 2.624-6.336 5.824-12.352 3.2-5.952 7.04-11.648 3.776-5.632 8.064-10.88 4.352-5.312 9.152-10.112 4.8-4.864 10.112-9.152 5.248-4.352 10.88-8.128 5.696-3.776 11.712-7.04 6.016-3.2 12.288-5.76 6.272-2.56 12.8-4.608 6.528-1.92 13.248-3.264 6.656-1.344 13.44-2.048 6.784-0.64 13.568-0.64 6.848 0 13.632 0.64t13.44 2.048q6.656 1.28 13.184 3.264 6.528 1.984 12.8 4.608 6.336 2.56 12.352 5.76 6.016 3.264 11.648 7.04 5.696 3.84 10.944 8.128 5.248 4.288 10.112 9.152 4.8 4.8 9.088 10.048 4.352 5.312 8.128 10.944 3.84 5.696 7.04 11.648 3.2 6.016 5.76 12.352 2.624 6.272 4.608 12.8 1.92 6.528 3.328 13.184 1.28 6.72 1.92 13.44 0.704 6.784 0.704 13.632z" fill="#273356" p-id="2465"></path></svg>