<?xml version="1.0" standalone="no"?><!DOCTYPE svg PUBLIC "-//W3C//DTD SVG 1.1//EN" "http://www.w3.org/Graphics/SVG/1.1/DTD/svg11.dtd"><svg t="1720495515570" class="icon" viewBox="0 0 1024 1024" version="1.1" xmlns="http://www.w3.org/2000/svg" p-id="2459" xmlns:xlink="http://www.w3.org/1999/xlink" width="200" height="200"><path d="M341.353412 256a170.646588 170.646588 0 0 1 341.293176 0h170.706824a42.646588 42.646588 0 0 1 0 85.353412H170.646588a42.646588 42.646588 0 1 1 0-85.353412h170.706824z m85.293176 0h170.706824a85.353412 85.353412 0 1 0-170.706824 0z m298.706824 171.369412a42.646588 42.646588 0 0 1 85.293176 0v417.008941c0 49.995294-34.273882 94.268235-82.642823 94.268235H295.996235c-48.368941 0-82.642824-44.212706-82.642823-94.268235V426.646588a42.646588 42.646588 0 0 1 85.293176 0v417.731765c0 6.987294 1.566118 8.975059-2.650353 8.975059h432.00753c-4.216471 0-2.650353-1.987765-2.650353-8.975059V427.369412z m-170.706824 33.430588a42.646588 42.646588 0 1 1 85.353412 0v298.646588a42.646588 42.646588 0 1 1-85.353412 0V460.8z m-170.646588 0a42.646588 42.646588 0 0 1 85.353412 0v298.646588a42.646588 42.646588 0 1 1-85.353412 0V460.8z" fill="#FF4B33" p-id="2460"></path></svg>