<?xml version="1.0" standalone="no"?><!DOCTYPE svg PUBLIC "-//W3C//DTD SVG 1.1//EN" "http://www.w3.org/Graphics/SVG/1.1/DTD/svg11.dtd"><svg t="1720403701893" class="icon" viewBox="0 0 1024 1024" version="1.1" xmlns="http://www.w3.org/2000/svg" p-id="2778" xmlns:xlink="http://www.w3.org/1999/xlink" width="200" height="200"><path d="M788.864 235.072A219.136 219.136 0 0 0 632.96 170.688H632.96c-58.944 0-114.24 22.912-155.776 64.384L391.616 320.64l47.04 47.04L524.16 282.24a153.984 153.984 0 0 1 217.536 0c28.992 28.992 44.992 67.648 44.992 108.8s-16 79.744-44.992 108.8l-85.44 85.44 47.04 47.104 85.632-85.504a220.736 220.736 0 0 0-0.064-311.68zM442.88 798.464a152.512 152.512 0 0 1-108.736 45.12c-41.088 0-79.744-16-108.8-45.12a152.576 152.576 0 0 1-45.12-108.736c0-41.152 16-79.744 45.056-108.8L310.784 495.36l-47.04-47.04-85.568 85.568a220.8 220.8 0 0 0 0 311.68c41.6 41.6 97.024 64.64 155.904 64.64a218.24 218.24 0 0 0 155.712-64.64l85.568-85.568-47.04-47.104-85.44 85.568z m13.632-332.16L312.32 322.048l-47.04 47.104 144.192 144.256 47.04-47.104z m51.648 145.664l144.256 144.256 47.04-47.04-144.256-144.256-47.04 47.04z" fill="#FF4B33" p-id="2779"></path></svg>