<?xml version="1.0" standalone="no"?><!DOCTYPE svg PUBLIC "-//W3C//DTD SVG 1.1//EN" "http://www.w3.org/Graphics/SVG/1.1/DTD/svg11.dtd"><svg t="1720403699354" class="icon" viewBox="0 0 1024 1024" version="1.1" xmlns="http://www.w3.org/2000/svg" p-id="2621" xmlns:xlink="http://www.w3.org/1999/xlink" width="200" height="200"><path d="M263.68 751.488a33.92 33.92 0 0 1-39.168-39.232l29.504-168.128a10.176 10.176 0 0 1 2.816-5.312l423.872-423.936a9.92 9.92 0 0 1 7.104-2.88c2.688 0 5.184 1.024 7.104 2.88l166.208 166.336c3.84 3.84 3.84 10.24 0 14.08L437.12 719.232a9.792 9.792 0 0 1-5.248 2.752l-168.192 29.504z m61.44-173.888l362.688-362.624 73.28 73.344-362.688 362.56-88.96 15.744 15.68-89.024z m554.88 258.368H144a32 32 0 0 0-32 32v36.032c0 4.416 3.584 8 8 8h784a8 8 0 0 0 8-8v-36.032a32 32 0 0 0-32-32z"  p-id="2622"></path></svg>