<?xml version="1.0" standalone="no"?><!DOCTYPE svg PUBLIC "-//W3C//DTD SVG 1.1//EN" "http://www.w3.org/Graphics/SVG/1.1/DTD/svg11.dtd"><svg t="1717471039695" class="icon" viewBox="0 0 1024 1024" version="1.1" xmlns="http://www.w3.org/2000/svg" p-id="1116" xmlns:xlink="http://www.w3.org/1999/xlink" width="200" height="200"><path d="M712.33333349 311.66666651v578.5999998H133.73333369V311.66666651H712.33333349z m0.5666669-66.79999951H132.6666667c-36.3333331 0-66.23333349 29.40000029-66.2333335 66.26666601V891.3333333c0 36.3333331 29.3666669 66.23333349 66.2333335 66.2333335h580.23333369c36.3333331 0 66.23333349-29.3666669 66.23333261-66.2333335V311.13333301a65.90000039 65.90000039 0 0 0-66.23333261-66.26666601z" fill="#FFFFFF" p-id="1117"></path><path d="M891.8666668 66.9666667H310.60000039c-36.3333331 0-65.1999999 29.3666669-65.7333334 65.1666665V199.99999971H311.66666651V133.73333369h578.5999998V712.33333349h-66.79999951v66.79999951h67.8666665c36.3333331 0 65.16666651-29.40000029 65.7-65.7V132.1333332A65.43333369 65.43333369 0 0 0 891.8666668 67.0000001z" fill="#FFFFFF" p-id="1118"></path></svg>