<?xml version="1.0" standalone="no"?><!DOCTYPE svg PUBLIC "-//W3C//DTD SVG 1.1//EN" "http://www.w3.org/Graphics/SVG/1.1/DTD/svg11.dtd"><svg t="1718159696967" class="icon" viewBox="0 0 1024 1024" version="1.1" xmlns="http://www.w3.org/2000/svg" p-id="1191" xmlns:xlink="http://www.w3.org/1999/xlink" width="200" height="200"><path d="M934.63018701 524.08299395a30.1617167 30.1617167 0 0 0-60.32343339-1e-8v268.29739688c0.09153809 21.74023565-8.5587873 42.56509394-23.98291349 57.89768115a81.33136699 81.33136699 0 0 1-57.94344931 23.93714355H231.80268536a81.46867412 81.46867412 0 0 1-57.98921924-23.93714355 81.28559795 81.28559795 0 0 1-24.02868165-57.89768115V231.8484544c0-45.26545958 36.70667227-81.92636279 81.9263628-81.92636367l262.39320615 1.23576151h0.0915372a30.20748574 30.20748574 0 1 0 0.09153809-60.41497148L231.89422256 89.50711924H231.80268536A142.38710332 142.38710332 0 0 0 89.46135107 231.8484544v560.53193642a142.06672089 142.06672089 0 0 0 142.34133428 142.15825811h560.57770547a142.02095185 142.02095185 0 0 0 142.24979619-142.15825811v-268.29739688z"  p-id="1192"></path><path d="M962.09153808 792.38039082v-268.29739687q0-23.84560635-16.88873115-40.73433663-16.88873027-16.84296211-40.73433662-16.84296123t-40.73433662 16.84296123q-16.88873027 16.88873027-16.88873116 40.73433663v268.29739688q0.09153809 22.56407666-15.88181396 38.44589061-15.97335205 15.92758301-38.58319775 15.92758389H231.80268536q-22.65561474 0-38.58319776-15.88181484-16.01912109-16.01912109-16.01912109-38.44589062V231.8484544q0.04576904-22.56407666 16.01912109-38.49166055 15.97335205-15.97335205 38.53742871-15.97335205l262.25589902 1.23576064h0.18307529q23.84560635 0.04576904 40.7343375-16.79719306 16.93449932-16.88873027 16.98026836-40.73433662 0.04576904-23.89137539-16.79719306-40.82587471-16.88873027-16.93449932-40.73433662-16.93449932L231.98576065 62.04576904H231.80268536Q161.50162695 62.04576904 111.75081347 111.79658252 62.04576904 161.50162695 62 231.8484544v560.53193642q0 70.34682656 49.75081348 120.051871 49.79658252 49.70504443 120.14340908 49.56773818h560.48616826q70.25528848 0.09153809 120.00610195-49.61350723t49.70504531-120.00610195z m-54.92270126-268.29739687v268.34316592q0 47.50813652-33.59438614 81.10252177-33.6401543 33.6401543-81.19405986 33.54861709H231.75691631q-47.55390557 0.09153809-81.19406074-33.50284805-33.6401543-33.59438526-33.6401543-81.19405985V231.8484544q0-47.59967461 33.68592334-81.23982979Q184.20301075 116.96847031 231.80268536 116.96847031l262.43897431 1.28152969q1.14422256 0 1.96806357 0.77807198 0.77807198 0.82384013 0.77807197 1.96806269 0 1.14422256-0.77807197 1.92229453-0.82384013 0.77807198-1.96806357 0.77807197L231.71114727 122.46074053q-45.31122862 0-77.34947081 32.03824218t-32.08401211 77.34947169v560.53193642q0 45.21969053 32.03824307 77.3494708 32.03824219 31.94670498 77.44100889 31.94670498h560.57770547q45.4027667 0 77.30370176-31.90093594 32.22131836-32.03824219 32.08401211-77.34947079v-268.34316593q0-2.65459746 2.70036562-2.65459657 1.0984544 0 1.92229453 0.77807109 0.77807198 0.77807198 0.77807197 1.87652548z"  p-id="1193"></path><path d="M723.22355586 150.15093594h108.19772138L295.05532959 686.51688359a30.1617167 30.1617167 0 1 0 42.65663115 42.61086211L874.16944648 192.67025997l0.04576905 108.28926034a30.11594766 30.11594766 0 0 0 60.3234334 0l-0.09153721-180.97030107a30.1617167 30.1617167 0 0 0-30.1617167-30.11594854h-181.06183916a30.1617167 30.1617167 0 0 0 0 60.27766524z"  p-id="1194"></path><path d="M682.62652549 79.43795791q-16.70565498 16.88873027-16.70565499 40.55126133 0 23.70829922 16.65988594 40.55126045t40.36818604 17.07180645h42.15317344L275.6493081 667.11086211q-16.88873027 16.93449932-16.88873027 40.7343375 0 23.89137539 16.93449932 40.73433662 16.84296211 16.93449932 40.73433662 16.93449932 23.7998373 0 40.7343375-16.93449932L846.70809629 258.98942217v42.06163535q0 23.7998373 16.93449931 40.7343375 16.88873027 16.84296211 40.73433663 16.79719219 23.7998373 0 40.7343375-16.84296124 16.84296211-16.93449932 16.84296123-40.7343375l-0.09153809-180.97030107q0-23.89137539-16.93449931-40.73433662-16.84296211-16.84296211-40.68856758-16.84296123h-181.06183916q-23.9829126 0.22884433-40.64279942 17.07180556z m40.91741279 43.25162696q-2.70036651 0-2.70036651-2.70036563 0-2.65459746 2.37998409-2.65459747h181.06183916q2.70036651 0 2.70036563 2.65459747l0.09153808 180.97030107q0 1.0984544-0.77807197 1.87652549t-1.92229453 0.7780711q-1.0984544 0-1.87652549-0.7780711-0.82384013-0.77807198-0.82384013-1.83075732l-0.09153809-174.6084208L318.30594013 709.7217251q-1.92229453 1.92229453-3.79882089 0-1.92229453-1.87652549 0-3.79882002L897.69467041 122.68958487h-174.15073213z"  p-id="1195"></path></svg>