<?xml version="1.0" standalone="no"?><!DOCTYPE svg PUBLIC "-//W3C//DTD SVG 1.1//EN" "http://www.w3.org/Graphics/SVG/1.1/DTD/svg11.dtd"><svg t="1721119583280" class="icon" viewBox="0 0 1024 1024" version="1.1" xmlns="http://www.w3.org/2000/svg" p-id="1964" xmlns:xlink="http://www.w3.org/1999/xlink" width="200" height="200"><path d="M876.062118 454.415059H704.150588l118.061177-118.061177a27.527529 27.527529 0 0 0-38.851765-38.851764L626.447059 454.415059H509.409882V337.438118l156.912942-156.912942a27.527529 27.527529 0 0 0-38.851765-38.912l-118.061177 118.061177V87.823059a27.527529 27.527529 0 0 0-54.994823 0v171.971765l-118.061177-118.061177a27.527529 27.527529 0 0 0-38.851764 38.851765l156.912941 156.912941v116.976941H337.438118L180.525176 297.502118a27.527529 27.527529 0 0 0-38.912 38.851764l118.061177 118.061177H87.823059a27.527529 27.527529 0 0 0 0 54.994823h171.971765l-118.061177 118.061177a27.527529 27.527529 0 1 0 38.851765 38.851765l156.912941-156.912942h116.976941v116.976942l-156.912941 156.912941a27.527529 27.527529 0 1 0 38.851765 38.912l118.061176-118.061177v171.91153a27.527529 27.527529 0 0 0 54.994824 0V704.150588l118.061176 118.061177a27.527529 27.527529 0 0 0 38.851765-38.851765L509.409882 626.447059V509.409882h116.976942l156.912941 156.912942a27.527529 27.527529 0 0 0 38.912-38.851765l-118.061177-118.061177h171.91153a27.527529 27.527529 0 0 0 0-54.994823z"  p-id="1965"></path></svg>