<?xml version="1.0" standalone="no"?><!DOCTYPE svg PUBLIC "-//W3C//DTD SVG 1.1//EN" "http://www.w3.org/Graphics/SVG/1.1/DTD/svg11.dtd"><svg t="1717469340344" class="icon" viewBox="0 0 1024 1024" version="1.1" xmlns="http://www.w3.org/2000/svg" p-id="1922" xmlns:xlink="http://www.w3.org/1999/xlink" width="200" height="200"><path d="M342.016 88H120c-17.696 0-32 14.304-32 32v224c0 8.8 7.2 16 16 16h48c8.8 0 16-7.2 16-16v-176h174.016c8.768 0 16-7.2 16-16v-48c0-8.8-7.232-16-16-16z m561.984 0h-222.016c-8.768 0-16 7.2-16 16v48c0 8.8 7.232 16 16 16h174.016v176c0 8.8 7.2 16 16 16h48c8.8 0 16-7.2 16-16v-224c0-17.696-14.304-32-32-32z m-562.016 768H168v-176c0-8.8-7.2-16-16-16h-48c-8.8 0-16 7.2-16 16v224c0 17.696 14.304 32 32 32h222.016c8.768 0 16-7.2 16-16v-48c0-8.8-7.232-16-16-16z m578.016-192h-48c-8.8 0-16 7.2-16 16v176h-174.016c-8.768 0-16 7.2-16 16v48c0 8.8 7.232 16 16 16h222.016c17.696 0 32-14.304 32-32v-224c0-8.8-7.2-16-16-16z" fill="#FFFFFF" p-id="1923"></path></svg>