<?xml version="1.0" standalone="no"?><!DOCTYPE svg PUBLIC "-//W3C//DTD SVG 1.1//EN" "http://www.w3.org/Graphics/SVG/1.1/DTD/svg11.dtd"><svg t="1720173172694" class="icon" viewBox="0 0 1024 1024" version="1.1" xmlns="http://www.w3.org/2000/svg" p-id="2936" xmlns:xlink="http://www.w3.org/1999/xlink" width="200" height="200"><path d="M577.28 207.872h-194.56a30.756571 30.756571 0 0 1-31.085714-30.427429V126.390857a30.72 30.72 0 0 1 31.085714-30.390857h194.56c17.115429 0 31.049143 13.641143 31.049143 30.390857v51.053714a30.72 30.72 0 0 1-31.049143 30.427429z m56.795429-51.456h99.328c54.454857 0 98.669714 43.300571 98.596571 96.621714v578.340572c0 53.321143-44.141714 96.621714-98.706286 96.621714H226.669714c-54.454857 0-98.669714-43.300571-98.669714-96.621714V253.074286c0-53.321143 44.141714-96.621714 98.669714-96.621715h99.364572v33.938286c0 20.845714 17.188571 37.668571 38.473143 37.668572h231.094857a38.034286 38.034286 0 0 0 38.473143-37.668572v-33.938286z m-361.874286 241.627429h435.638857a24.722286 24.722286 0 0 0 25.014857-24.32 24.612571 24.612571 0 0 0-24.905143-24.356572H272.201143a24.612571 24.612571 0 0 0-24.868572 24.356572c0 13.421714 11.117714 24.32 24.868572 24.32z m0 159.707428h435.638857a24.685714 24.685714 0 0 0 25.014857-24.356571 24.612571 24.612571 0 0 0-24.905143-24.32H272.201143a24.612571 24.612571 0 0 0-24.868572 24.32c0 13.458286 11.117714 24.356571 24.868572 24.356571z m0 159.707429h435.638857a24.722286 24.722286 0 0 0 25.014857-24.356572 24.612571 24.612571 0 0 0-24.905143-24.356571H272.201143a24.612571 24.612571 0 0 0-24.868572 24.356571c0 13.458286 11.117714 24.356571 24.868572 24.356572z" fill="#FFFFFF" p-id="2937"></path></svg>