<?xml version="1.0" standalone="no"?><!DOCTYPE svg PUBLIC "-//W3C//DTD SVG 1.1//EN" "http://www.w3.org/Graphics/SVG/1.1/DTD/svg11.dtd"><svg t="1720173161041" class="icon" viewBox="0 0 1024 1024" version="1.1" xmlns="http://www.w3.org/2000/svg" p-id="2622" xmlns:xlink="http://www.w3.org/1999/xlink" width="200" height="200"><path d="M902.692571 427.995429l-369.261714-310.491429a33.609143 33.609143 0 0 0-43.044571 0L122.953143 426.715429a32.036571 32.036571 0 0 0-13.238857 25.965714v429.092571a32.914286 32.914286 0 0 0 33.133714 32.512h253.147429v-218.038857a32.914286 32.914286 0 0 1 33.133714-32.512h165.595428a32.914286 32.914286 0 0 1 33.097143 32.512V914.285714h253.330286a32.914286 32.914286 0 0 0 33.133714-32.512V452.681143a32.585143 32.585143 0 0 0-11.593143-24.685714z" fill="#FFFFFF" p-id="2623"></path></svg>