<?xml version="1.0" standalone="no"?><!DOCTYPE svg PUBLIC "-//W3C//DTD SVG 1.1//EN" "http://www.w3.org/Graphics/SVG/1.1/DTD/svg11.dtd"><svg t="1718594987993" class="icon" viewBox="0 0 3276 1024" version="1.1" xmlns="http://www.w3.org/2000/svg" p-id="1757" id="mx_n_1718594987994" xmlns:xlink="http://www.w3.org/1999/xlink" width="639.84375" height="200"><path d="M1281.276062 269.248985l-94.838154 162.642707-92.916185-162.642707h-143.1552l169.794954 276.259446 3.103508 4.899446v167.841477h126.408861v-170.299077L1421.942154 269.264738h-140.666092zM837.773785 269.359262c49.041723 3.182277 84.913231 17.439508 109.725538 40.314092 19.2512 17.770338 31.224123 41.653169 31.224123 72.278646v1.2288c0 52.066462-31.885785 82.707692-75.067077 100.462277 59.108431 17.754585 96.980677 48.395815 96.980677 109.646769v1.2288c0 71.632738-59.927631 118.043569-162.863261 123.636185v-100.320493a43.4176 43.4176 0 0 0 28.010338-40.487384v-1.827446c0-15.612062-9.089969-32.862523-28.010338-39.872985v-89.607877c4.883692-8.192 7.420062-28.325415 7.420061-37.131815v-1.213046c0-8.507077-2.489108-28.404185-7.420061-36.53317v-101.801353zM715.728738 269.233231h102.8096v99.847877h-44.898461-57.911139-61.093415v79.037046h119.004554v0.031508h44.898461v86.945476h-44.898461-57.911139-61.093415v83.306339h163.903015v99.847877h-44.898461-57.911139-36.391384-12.445539H535.630769V269.233231h180.097969zM2725.415385 489.566523C2725.415385 360.290462 2631.207385 267.815385 2468.864 267.815385h-49.467077v110.261169h51.326031c75.602708 0 125.180062 41.038769 125.180061 113.317415v1.071262l129.51237-0.126031v-1.559631-1.827446 0.6144z m-129.51237 3.670646v-0.771938l129.51237-0.126031c-1.244554 128.630154-96.0512 224.476554-259.024739 224.476554h-47.009477v-110.261169h51.341785c75.602708 0 125.180062-41.054523 125.180061-113.317416zM2292.342154 267.815385h127.023261v449.000369h-127.023261V267.815385z" fill="#FFFFFF" p-id="1758"></path><path d="M1579.275815 724.676923c-127.196554 0-230.289723-101.927385-230.289723-227.643077 0-125.715692 103.093169-227.643077 230.289723-227.643077 127.1808 0 230.273969 101.927385 230.27397 227.643077 0 125.715692-103.093169 227.643077-230.27397 227.643077z m-82.550153-146.605292a116.893538 116.893538 0 0 0 82.550153 33.539938c32.405662 0 61.597538-12.823631 82.550154-33.555692a113.348923 113.348923 0 0 0 33.555693-81.006277 113.364677 113.364677 0 0 0-33.555693-81.037785 116.925046 116.925046 0 0 0-82.550154-33.555692 116.893538 116.893538 0 0 0-82.550153 33.555692 113.317415 113.317415 0 0 0-33.555693 81.037785c0 31.901538 12.807877 60.526277 33.555693 81.022031zM1958.896246 267.815385h-124.140308v449.000369h124.549908v-127.338339-118.91003-17.092923l-0.630154-0.8192 177.860923 265.310523h127.039016V268.965415h-127.039016v229.65957l0.441108 32.232369L1958.896246 267.815385z" fill="#FFFFFF" p-id="1759"></path></svg>