<?xml version="1.0" standalone="no"?><!DOCTYPE svg PUBLIC "-//W3C//DTD SVG 1.1//EN" "http://www.w3.org/Graphics/SVG/1.1/DTD/svg11.dtd"><svg t="1717468765424" class="icon" viewBox="0 0 1024 1024" version="1.1" xmlns="http://www.w3.org/2000/svg" p-id="2050" xmlns:xlink="http://www.w3.org/1999/xlink" width="200" height="200"><path d="M792 768h24c17.696 0 32 14.304 32 32v32a8 8 0 0 1-8 8H624c0 61.792-50.208 112-112 112a112.064 112.064 0 0 1-112-112H184A8 8 0 0 1 176 832v-32c0-17.696 14.304-32 32-32h24V428c0-141.12 104.32-257.696 240-277.12V112a40 40 0 1 1 80 0v38.912c135.68 19.392 240 136 240 277.088V768zM304 768V428c0-55.616 21.6-107.808 60.896-147.104A206.56 206.56 0 0 1 512 220c55.616 0 107.808 21.6 147.104 60.896a206.56 206.56 0 0 1 60.896 147.104V768h-416z m208 120a48 48 0 0 1-48-48h96a48 48 0 0 1-48 48z" fill="#FFFFFF" p-id="2051"></path></svg>