<?xml version="1.0" standalone="no"?><!DOCTYPE svg PUBLIC "-//W3C//DTD SVG 1.1//EN" "http://www.w3.org/Graphics/SVG/1.1/DTD/svg11.dtd"><svg t="1719813807925" class="icon" viewBox="0 0 1024 1024" version="1.1" xmlns="http://www.w3.org/2000/svg" p-id="1407" xmlns:xlink="http://www.w3.org/1999/xlink" width="200" height="200"><path d="M505.152 898.368a44.608 44.608 0 0 0 44.352-45.248 44.416 44.416 0 0 0-44.352-44.352 45.184 45.184 0 0 0-45.248 44.352 45.952 45.952 0 0 0 45.248 45.248zM716.736 64H283.264C232.576 64 192 103.808 192 153.6v716.8c0 49.792 40.576 89.6 91.264 89.6H716.8c50.688 0 91.264-39.808 91.264-89.6V153.6c0-49.792-40.576-89.6-91.264-89.6z m0.96 851.2H292.352a44.608 44.608 0 0 1-44.352-45.248v-105.92h514.944v105.92c-0.896 24.448-20.8 45.248-45.248 45.248z m34.304-213.248H248v-537.6c0-24.448 19.456-44.352 43.328-44.352h415.552c23.872 0 43.328 19.904 43.328 44.352v537.6h1.792z"  p-id="1408"></path><path d="M192 153.6v716.8c0 49.792 40.576 89.6 91.264 89.6H716.8c50.688 0 91.264-39.808 91.264-89.6V153.6c0-49.792-40.576-89.6-91.264-89.6H283.264C232.576 64 192 103.808 192 153.6z m558.208 548.352H248v-537.6c0-24.448 19.456-44.352 43.328-44.352h415.552c23.872 0 43.328 19.904 43.328 44.352v537.6z m12.8 62.08H247.936v105.92c0 25.344 19.904 45.248 44.352 45.248h425.344c24.448 0 44.352-20.8 45.248-45.248v-105.92zM459.84 853.12a43.648 43.648 0 0 1 8.128-25.152c8.32-11.52 22.016-19.2 37.12-19.2a44.352 44.352 0 0 1 44.352 44.352 44.928 44.928 0 0 1-44.352 45.248 44.032 44.032 0 0 1-14.4-2.368 46.72 46.72 0 0 1-30.848-42.88z m64-2.24l-9.472 0.32h-28.864q0.96-16.832 19.584-16.832 18.112 0 18.688 16.512z"  p-id="1409"></path></svg>