<?xml version="1.0" standalone="no"?><!DOCTYPE svg PUBLIC "-//W3C//DTD SVG 1.1//EN" "http://www.w3.org/Graphics/SVG/1.1/DTD/svg11.dtd"><svg t="1719803438368" class="icon" viewBox="0 0 1024 1024" version="1.1" xmlns="http://www.w3.org/2000/svg" p-id="1461" xmlns:xlink="http://www.w3.org/1999/xlink" width="200" height="200"><path d="M798.75640889 457.38666667H876.08888889a36.40888889 36.40888889 0 0 1 36.40888889 36.40888888v436.90666667a36.40888889 36.40888889 0 0 1-36.40888889 36.40888889H147.91111111a36.40888889 36.40888889 0 0 1-36.40888889-36.40888889v-436.90666667a36.40888889 36.40888889 0 0 1 36.40888889-36.40888888h77.40529778v-254.86222222a145.63555555 145.63555555 0 0 1 145.63555556-145.63555556h282.16888888a145.63555555 145.63555555 0 0 1 145.63555556 145.63555556v254.86222222zM370.80632889 138.80888889a63.78837333 63.78837333 0 0 0-63.71555556 63.71555556v254.86222222h409.6v-254.86222222a63.78837333 63.78837333 0 0 0-63.64273778-63.71555556H370.87914667z m459.69863111 746.38222222v-345.88444444h-637.15555555v345.88444444h637.15555555z m-350.47196445-158.16021333v60.29312c0 5.02442667 4.15061333 9.10222222 9.10222223 9.10222222h45.51111111a9.10222222 9.10222222 0 0 0 9.17504-9.10222222v-60.29312A54.54051555 54.54051555 0 0 0 512 627.99872a54.61333333 54.61333333 0 0 0-31.89418667 99.03217778z"  p-id="1462"></path></svg>