<?xml version="1.0" standalone="no"?><!DOCTYPE svg PUBLIC "-//W3C//DTD SVG 1.1//EN" "http://www.w3.org/Graphics/SVG/1.1/DTD/svg11.dtd"><svg t="1717575767985" class="icon" viewBox="0 0 1024 1024" version="1.1" xmlns="http://www.w3.org/2000/svg" p-id="1158" xmlns:xlink="http://www.w3.org/1999/xlink" width="200" height="200"><path d="M503.54392959 113.15252041L377.65474912 65.14883633c-26.34740333-8.99667422-56.0364293 1.92785888-67.2501419 24.83724726-11.21371172 22.90938926 0.09639316 49.51384013 25.57626065 60.27771885-176.17416416 64.90458018-285.93359209 221.70376318-272.95267675 389.90944424 13.01304727 168.17355 145.8746499 310.38526846 330.40286894 353.56930576 4.49833711 0.99606006 9.12519844 1.54228711 13.75205976 1.60654922 26.34740333-0.03213106 48.54991113-17.28646699 51.98792607-40.32438047 3.43801494-23.07004365-12.98091622-44.79058653-38.39652157-50.83121074-143.30417167-33.70539815-245.51281933-145.36055391-252.71015889-276.16577431-7.2294706-130.83735146 82.25530928-250.71803789 221.18966719-296.50468448l-8.35405489 17.12581172c-5.462267 11.27797383-5.62292138 24.06610371-0.41770283 35.47260264 5.1730875 11.40649805 15.32647792 20.49956543 28.14673887 25.28708115 6.42619599 2.50621612 13.4307501 3.85571777 20.46743438 3.85571777 20.85300615 0.16065528 39.84241552-10.60322344 48.35712568-27.37559531l53.4659502-111.94433437c11.24584278-23.45561542-0.96392901-50.57416318-27.37559444-60.79181485z m457.96285986 396.68908096c5.39800489-177.74858232-124.60394092-336.70054072-317.38982168-388.04584746a57.83576396 57.83576396 0 0 0-52.53415312 9.67142549c-14.1697626 11.50289121-20.11399365 28.91788242-15.48713233 45.4010748 4.65899238 16.48319239 19.15006377 29.43197754 37.78603242 33.70539814 132.9579958 34.9906377 228.61192412 137.61698818 241.94628106 259.55405772 13.33435693 121.93706953-58.34985996 238.86170684-181.25085937 295.66927968 13.8805831-22.39529326 4.59473028-50.50990107-20.75661299-62.78393583-25.38347432-12.30616583-57.19314463-4.08063427-71.10585879 18.31465898l-71.55569267 103.01192227c-7.45438711 10.47469922-9.83207988 23.13430576-6.58685128 35.18342314 3.21309844 12.01698633 11.82420088 22.39529326 23.7769251 28.78935821l116.50693448 63.97278135a58.34985996 58.34985996 0 0 0 55.2974168 4.40194482c17.89695615-7.9684831 29.07853682-24.19462792 28.88575136-41.89879864-0.19278545-17.67203877-11.79206982-33.7375292-29.84968125-41.35257157l-15.93696621-8.8038879c164.34996328-58.92821719 273.59529609-198.2160167 278.25428847-354.79028321z" fill="#FFFFFF" p-id="1159"></path></svg>