<?xml version="1.0" standalone="no"?><!DOCTYPE svg PUBLIC "-//W3C//DTD SVG 1.1//EN" "http://www.w3.org/Graphics/SVG/1.1/DTD/svg11.dtd"><svg t="1717557077152" class="icon" viewBox="0 0 1024 1024" version="1.1" xmlns="http://www.w3.org/2000/svg" p-id="1259" xmlns:xlink="http://www.w3.org/1999/xlink" width="200" height="200"><path d="M812.06 946.99999971H279.50000029c-66.12000029 0-119.90999971-53.57999971-119.91000058-119.45999971v-33.81000029c-0.02999971-18.45 14.96999971-33.39 33.48-33.39 18.51000029 0 33.50999971 14.94 33.54000029 33.36000029v33.84c0 29.07 23.73000029 52.67999971 52.89000029 52.67999971h532.62c29.16 0 52.85999971-23.60999971 52.85999971-52.67999971V196.46c0-29.07-23.69999971-52.67999971-52.85999971-52.67999971H279.46999971c-29.16 0-52.89000029 23.60999971-52.88999942 52.67999971v16.2c0 18.45-15.00000029 33.39-33.51000058 33.39a33.45000029 33.45000029 0 0 1-33.50999971-33.39v-16.2C159.56 130.58 213.35000029 77.00000029 279.46999971 77.00000029h532.59000029C878.21 77.00000029 932.00000029 130.58 932.00000029 196.46v631.08c0 65.88-53.79000029 119.45999971-119.94000029 119.45999971z"  p-id="1260"></path><path d="M907.39999971 922.60999971Q946.99999971 883.18999971 946.99999971 827.54V196.46q0-55.64999971-39.6-95.06999971Q867.88999971 62 812.08999971 62H279.50000029Q223.70000029 62 184.13 101.39000029q-39.6 39.42-39.6 95.06999971v16.2q0 20.07 14.24999971 34.22999971 14.22 14.15999971 34.29 14.16000058 20.09999971 0 34.29-14.16000058 14.22-14.15999971 14.22-34.2v-16.22999971q0-15.57 11.10000058-26.61000029 11.09999971-11.09999971 26.78999942-11.09999971h532.62q15.66 0 26.79000029 11.09999971 11.09999971 11.04000029 11.09999971 26.61000029v631.08q0 15.57-11.09999971 26.61000029-11.09999971 11.09999971-26.79000029 11.09999971H279.46999971q-15.66 0-26.78999942-11.09999971-11.09999971-11.04000029-11.10000058-26.61000029V793.7q0-20.07-14.24999971-34.2-14.19000029-14.15999971-34.26000029-14.15999971h-0.02999971q-20.09999971 0-34.29 14.15999971-14.22 14.15999971-14.22 34.22999971v33.81000029q0 55.64999971 39.6 95.06999971Q223.70000029 962 279.50000029 962h532.58999942q55.8 0 95.37000029-39.39000029zM917 196.46v631.08q0 43.2-30.75000029 73.8Q855.46999971 932.00000029 812.06 932.00000029H279.50000029q-43.38 0-74.16-30.66000029-30.75000029-30.6-30.75000029-73.8V793.7q0-7.58999971 5.4-12.96 5.4-5.4 13.07999971-5.4 7.71000029 0 13.14 5.4 5.4 5.37000029 5.4 12.96v33.84q0 28.01999971 19.95000029 47.88 19.89 19.8 47.94000029 19.8h532.62q28.05000029 0 47.93999942-19.8 19.91999971-19.86000029 19.92000058-47.88V196.46q0-28.01999971-19.92000058-47.88-19.89-19.8-47.93999942-19.8H279.46999971q-28.05000029 0-47.93999942 19.8-19.95000029 19.86000029-19.95000029 47.88v16.2q0 7.58999971-5.4 12.98999971t-13.11000029 5.4q-7.67999971 0-13.10999942-5.4-5.4-5.4-5.4-12.98999971v-16.2q0-43.2 30.74999942-73.8Q236.08999971 91.99999971 279.46999971 91.99999971h532.59000029q43.40999971 0 74.18999971 30.66000029Q917 153.26 917 196.46z"  p-id="1261"></path><path d="M701 353.84000029h-288a33.45000029 33.45000029 0 0 1-33.48-33.39c0-18.42000029 15.00000029-33.36000029 33.50999971-33.36000029h287.94000058c18.51000029 0 33.54000029 14.94 33.53999942 33.36000029 0 18.45-15.00000029 33.39-33.53999942 33.39z m1.01999971 189.9h-287.93999971a33.45000029 33.45000029 0 0 1-33.54000029-33.42000058c0-18.42000029 15.00000029-33.36000029 33.54000029-33.35999942h287.93999971c18.51000029 0 33.50999971 14.94 33.51000058 33.35999942 0 18.45-15.00000029 33.39-33.51000058 33.39z m0 188.78999942h-287.93999971a33.45000029 33.45000029 0 0 1-33.54000029-33.35999942c0-18.45 15.00000029-33.39 33.54000029-33.39h287.93999971c18.51000029 0 33.50999971 14.94 33.51000058 33.39 0 18.42000029-15.00000029 33.36000029-33.51000058 33.35999942z m-438.23999971-28.58999942H128.66000029a33.45000029 33.45000029 0 0 1-33.51000058-33.39c0-18.42000029 15.00000029-33.39 33.51000058-33.39h135.11999971c18.51000029 0 33.50999971 14.96999971 33.50999971 33.39 0 18.45-15.00000029 33.39-33.50999971 33.39zM260.60000029 359.69000029H125.51000029A33.45000029 33.45000029 0 0 1 91.99999971 326.30000029c0-18.45 15.00000029-33.39 33.51000058-33.39h135.11999971c18.51000029 0 33.50999971 14.94 33.50999971 33.39 0 18.42000029-15.00000029 33.39-33.50999971 33.39z"  p-id="1262"></path><path d="M735.26000029 354.70999971q14.24999971-14.19000029 14.24999971-34.25999942 0-20.04000029-14.24999971-34.2-14.19000029-14.15999971-34.29-14.16000058h-287.94000058q-20.09999971 0-34.29 14.13-14.22 14.19000029-14.22 34.23000058 0 20.09999971 14.22 34.25999942 14.22 14.13 34.29 14.13h287.94000058q20.09999971 0 34.29-14.13zM294.92 360.50000029q14.22-14.19000029 14.22-34.23000058 0-20.07-14.22-34.22999971T260.60000029 277.91H125.51000029q-20.07 0-34.29 14.15999971T77.00000029 326.26999971q0 20.09999971 14.22 34.26000029 14.22 14.15999971 34.29 14.15999971h135.11999971q20.09999971 0 34.29-14.15999971z m419.19000029-53.04000058q5.4 5.4 5.4 12.96 0 7.62000029-5.4 12.99000058-5.42999971 5.4-13.14 5.4h-287.94000058q-7.67999971 0-13.10999942-5.4-5.4-5.4-5.4-12.99000058t5.4-12.96q5.4-5.4 13.10999942-5.4h287.94000058q7.71000029 0 13.14 5.4z m-440.37 5.82000029q5.4 5.4 5.4 12.98999971t-5.4 12.96q-5.4 5.4-13.11000029 5.4H125.51000029q-7.67999971 0-13.11000029-5.4Q107 333.89 107 326.30000029t5.4-12.99000058q5.42999971-5.4 13.11000029-5.4h135.11999971q7.67999971 0 13.11000029 5.4z m462.56999942 231.23999971q14.22-14.15999971 14.22-34.2 0-20.09999971-14.22-34.25999942-14.22-14.13-34.29-14.13h-287.93999971q-20.09999971 0-34.29 14.13-14.24999971 14.19000029-14.24999971 34.22999971 0 20.07 14.24999971 34.22999971 14.22 14.15999971 34.29 14.16000058h287.93999971q20.09999971 0 34.29-14.16000058z m-21.17999971-47.18999971q5.4 5.4 5.4 12.96 0 7.62000029-5.4 12.98999971-5.4 5.4-13.11000029 5.4h-287.93999971q-7.67999971 0-13.11000029-5.4-5.4-5.4-5.4-12.98999971t5.4-12.96q5.4-5.4 13.11000029-5.4h287.93999971q7.67999971 0 13.11000029 5.4zM298.09999971 704.78q14.22-14.15999971 14.22-34.2 0-20.09999971-14.22-34.26000029-14.22-14.15999971-34.29-14.15999971H128.66000029q-20.09999971 0-34.29 14.15999971-14.22 14.19000029-14.22 34.23000058 0 20.07 14.22 34.22999971t34.29 14.15999971h135.11999971q20.07 0 34.29-14.15999971z m438.24000058 28.62q14.22-14.19000029 14.22-34.22999971 0-20.09999971-14.22-34.26000029-14.22-14.13-34.29-14.13h-287.94000058q-20.09999971 0-34.29 14.13-14.24999971 14.19000029-14.24999971 34.26000029 0 20.04000029 14.24999971 34.2 14.22 14.15999971 34.29 14.15999971h287.94000058q20.09999971 0 34.29-14.13zM276.89000029 657.59000029q5.4 5.37000029 5.4 12.96t-5.4 12.98999971q-5.42999971 5.4-13.11000029 5.4H128.66000029q-7.67999971 0-13.11000029-5.4-5.4-5.4-5.4-12.98999971t5.4-12.96q5.4-5.4 13.11000029-5.4h135.11999971q7.67999971 0 13.11000029 5.4z m438.23999971 28.58999942q5.4 5.4 5.4 12.99000058t-5.4 12.96q-5.4 5.4-13.11000029 5.4h-287.93999971q-7.67999971 0-13.11000029-5.4-5.4-5.4-5.4-12.96 0-7.62000029 5.4-12.99000058 5.4-5.4 13.11000029-5.4h287.93999971q7.67999971 0 13.11000029 5.4z"  p-id="1263"></path><path d="M193.01000029 588.20000029a33.45000029 33.45000029 0 0 1-33.51000058-33.36000029l-0.05999942-109.86000029c0-18.45 15.00000029-33.39 33.50999971-33.39 18.54 0 33.54000029 14.94 33.54000029 33.36000029l0.02999971 109.89c0 18.42000029-15.00000029 33.39-33.50999971 33.39z"  p-id="1264"></path><path d="M193.01000029 603.19999971q20.09999971 0 34.29-14.13 14.22-14.19000029 14.22-34.22999971l-0.03000058-109.89q0-20.04000029-14.24999971-34.2-14.19000029-14.15999971-34.26000029-14.15999971-20.09999971 0-34.31999971 14.15999971-14.22 14.15999971-14.22 34.2l0.06000029 109.89q0 20.07 14.22 34.22999971t34.29 14.16000058z m0-29.99999971q-7.67999971 0-13.11000029-5.4-5.4-5.37000029-5.4-12.96l-0.06000029-109.89q0-7.58999971 5.4-12.96 5.42999971-5.4 13.11000029-5.4 7.71000029 0 13.14 5.4 5.4 5.4 5.4 12.96l0.02999971 109.89q0 7.58999971-5.4 12.98999971t-13.10999942 5.4z"  p-id="1265"></path></svg>