<?xml version="1.0" standalone="no"?><!DOCTYPE svg PUBLIC "-//W3C//DTD SVG 1.1//EN" "http://www.w3.org/Graphics/SVG/1.1/DTD/svg11.dtd"><svg t="1720173158402" class="icon" viewBox="0 0 1024 1024" version="1.1" xmlns="http://www.w3.org/2000/svg" p-id="2465" xmlns:xlink="http://www.w3.org/1999/xlink" width="200" height="200"><path d="M845.275429 259.108571L544.402286 81.92v0.073143a63.853714 63.853714 0 0 0-64.950857 0L178.724571 259.145143C158.646857 271.030857 146.285714 292.937143 146.285714 316.562286v354.267428c0 23.698286 12.361143 45.604571 32.438857 57.417143l300.763429 177.152c20.114286 11.849143 44.873143 11.849143 64.950857 0l300.836572-177.188571c20.077714-11.885714 32.438857-33.718857 32.438857-57.417143V316.525714a66.56 66.56 0 0 0-32.438857-57.417143z m-338.066286 433.152a77.019429 77.019429 0 0 1-49.261714-78.701714l-71.497143-42.130286a74.276571 74.276571 0 0 1-94.829715-7.314285 78.08 78.08 0 0 1-12.361142-96.219429 74.678857 74.678857 0 0 1 89.782857-32 77.092571 77.092571 0 0 1 49.078857 83.126857l68.534857 40.374857a74.678857 74.678857 0 0 1 50.980571-16.201142l76.434286-135.094858a78.153143 78.153143 0 0 1 2.267429-97.024 74.386286 74.386286 0 0 1 93.549714-17.554285 77.568 77.568 0 0 1 35.986286 89.819428 75.446857 75.446857 0 0 1-78.811429 54.308572l-75.702857 133.558857c21.577143 26.806857 22.893714 65.024 3.218286 93.330286a74.605714 74.605714 0 0 1-87.405715 27.721142z" fill="#FFFFFF" p-id="2466"></path></svg>