<?xml version="1.0" standalone="no"?><!DOCTYPE svg PUBLIC "-//W3C//DTD SVG 1.1//EN" "http://www.w3.org/Graphics/SVG/1.1/DTD/svg11.dtd"><svg t="1719813842817" class="icon" viewBox="0 0 1024 1024" version="1.1" xmlns="http://www.w3.org/2000/svg" p-id="1408" xmlns:xlink="http://www.w3.org/1999/xlink" width="200" height="200"><path d="M512 968c-16.384 0-32.32-5.504-45.248-15.616l-94.976-74.24a553.28 553.28 0 0 1-212.288-435.712V232.32a58.88 58.88 0 0 1 50.816-58.176C393.6 149.76 464.96 87.232 482.432 68.672a41.6 41.6 0 0 1 57.792-2.816c24.704 21.44 117.44 92.864 272 109.056 29.824 3.2 52.48 28.352 52.288 58.368v209.152a553.28 553.28 0 0 1-212.288 435.648l-94.976 74.304c-12.928 10.112-28.8 15.616-45.248 15.616zM223.488 236.992v205.44a486.272 486.272 0 0 0 187.776 385.28l94.912 74.24a9.408 9.408 0 0 0 11.648 0l94.912-74.24a486.272 486.272 0 0 0 187.712-385.28V238.016c-146.944-16.64-244.48-78.72-286.464-111.104-37.76 32.832-122.944 86.848-290.496 110.08z"  p-id="1409"></path><path d="M489.984 628.48H489.6a32 32 0 0 1-22.784-10.048L348.288 493.12a32 32 0 1 1 46.528-44.032l95.808 101.44 175.68-175.68a32 32 0 0 1 45.248 45.248L512.64 619.072a32 32 0 0 1-22.592 9.344z"  p-id="1410"></path></svg>