<?xml version="1.0" standalone="no"?><!DOCTYPE svg PUBLIC "-//W3C//DTD SVG 1.1//EN" "http://www.w3.org/Graphics/SVG/1.1/DTD/svg11.dtd"><svg t="1720173151531" class="icon" viewBox="0 0 1024 1024" version="1.1" xmlns="http://www.w3.org/2000/svg" p-id="2308" xmlns:xlink="http://www.w3.org/1999/xlink" width="200" height="200"><path d="M951.332571 426.057143a23.881143 23.881143 0 0 1 0.658286 4.132571c2.523429 14.884571 8.192 49.810286 8.009143 78.372572 0 30.902857-5.778286 64.658286-8.301714 79.140571l-0.658286 3.547429v0.694857l-0.365714 1.938286c-6.217143 34.742857-27.684571 56.429714-56.429715 56.429714h-4.790857c-46.665143 0-84.845714 38.765714-84.845714 86.637714v0.950857l-0.182857 0.987429c-1.536 15.652571 6.656 33.097143 6.838857 33.170286l0.219429 0.402285 0.182857 0.365715c13.385143 30.646857 2.706286 69.229714-23.625143 86.052571l-0.365714 0.402286-104.777143 59.172571-0.365715 0.182857c-11.190857 5.632-21.028571 9.362286-34.377142 9.362286a74.898286 74.898286 0 0 1-52.662858-22.162286c-27.501714-28.050286-54.784-45.458286-71.058285-45.458285-21.869714 0-55.04 29.147429-67.364572 40.155428-1.353143 1.170286-2.523429 2.377143-3.657143 3.254857-12.068571 13.787429-31.341714 22.125714-52.736 22.125715-10.020571 0-18.797714-3.035429-26.514285-5.595429l-1.938286-0.694857-102.144-58.075429-0.768-0.365714c-28.342857-19.309714-40.484571-57.6-27.684571-87.405714 2.121143-5.558857 7.131429-21.211429 7.131428-32.219429 0-47.652571-37.961143-86.637714-84.809143-86.637714H161.645714c-27.465143 0-49.554286-21.942857-56.393143-55.990857l-0.365714-2.194286v-0.768a24.027429 24.027429 0 0 1-0.694857-4.132571c-2.523429-14.848-8.192-49.92-8.192-78.555429 0-28.635429 5.778286-63.707429 8.192-78.555429 0.292571-1.755429 0.658286-3.145143 0.658286-4.132571v-0.694857l0.402285-1.974857c6.180571-34.742857 27.648-56.393143 56.393143-56.393143h4.534857c46.628571 0 84.809143-38.765714 84.809143-86.637714 0-14.262857-6.582857-30.610286-8.667428-35.437715l-0.219429-0.365714-0.182857-0.402286c-13.385143-30.610286-2.706286-69.193143 23.625143-86.052571l0.658286-0.365714 108.434285-59.977143 1.755429-0.694857c7.68-2.633143 16.384-5.595429 26.697143-5.595429 19.638857 0 38.838857 8.155429 52.699428 22.162286 16.310857 16.530286 49.481143 40.96 69.046857 40.96 19.638857 0 52.699429-24.502857 68.973715-40.96 13.019429-13.312 34.011429-22.162286 52.736-22.162286 10.020571 0 19.017143 3.035429 26.697143 5.595429l1.938285 0.731428L778.605714 162.011429c32.877714 18.395429 47.030857 54.528 33.718857 86.235428-2.121143 5.485714-7.131429 21.174857-7.131428 32.182857 0 47.652571 37.997714 86.637714 84.845714 86.637715h4.498286c27.501714 0 49.554286 21.942857 56.393143 55.990857l0.365714 2.194285v0.768z m-557.604571 86.052571c0 75.702857 60.050286 136.996571 134.180571 136.996572s134.144-61.293714 134.144-136.996572c0-75.702857-60.050286-137.033143-134.144-137.033143-74.130286 0-134.180571 61.330286-134.180571 137.033143z" fill="#FFFFFF" p-id="2309"></path></svg>