<?xml version="1.0" standalone="no"?><!DOCTYPE svg PUBLIC "-//W3C//DTD SVG 1.1//EN" "http://www.w3.org/Graphics/SVG/1.1/DTD/svg11.dtd"><svg t="1719813828927" class="icon" viewBox="0 0 1024 1024" version="1.1" xmlns="http://www.w3.org/2000/svg" p-id="1408" xmlns:xlink="http://www.w3.org/1999/xlink" width="200" height="200"><path d="M512 62A450 450 0 1 0 962 512 450.69230742 450.69230742 0 0 0 512 62z m377.30769258 450a377.30769258 377.30769258 0 1 1-754.61538516 0.69230742 377.30769258 377.30769258 0 0 1 754.61538516-0.69230742z"  p-id="1409"></path><path d="M616.67692315 357.33846114c-20.76923057 0-37.31538427 17.30769258-36.34615372 38.00769258v163.38461571l-151.61538516-178.40769258a15.99230742 15.99230742 0 0 0-3.73846112-2.97692313 36 36 0 0 0-49.98461573-15.36923057 36.34615371 36.34615371 0 0 0-18 31.36153799v254.63076943a36.34615371 36.34615371 0 0 0 72.6923083 0V493.30769258l153.69230743 179.03076856c6.92307685 7.82307685 16.82307685 12.32307685 27.27692314 12.32307772h6.02307686c20.07692315 0 36.34615371-16.26923057 36.3461537-36.34615459V395.34615371a36.34615371 36.34615371 0 0 0-36.3461537-36.34615371v-1.66153887z"  p-id="1410"></path></svg>