<?xml version="1.0" standalone="no"?><!DOCTYPE svg PUBLIC "-//W3C//DTD SVG 1.1//EN" "http://www.w3.org/Graphics/SVG/1.1/DTD/svg11.dtd"><svg t="1717469062764" class="icon" viewBox="0 0 1024 1024" version="1.1" xmlns="http://www.w3.org/2000/svg" p-id="1641" xmlns:xlink="http://www.w3.org/1999/xlink" width="200" height="200"><path d="M111.50222222 93.29777778h345.88444445c10.01244445 0 18.20444445 8.192 18.20444444 18.20444444v345.88444445c0 10.01244445-8.192 18.20444445-18.20444444 18.20444444H111.50222222a18.24085333 18.24085333 0 0 1-18.20444444-18.20444444V111.50222222c0-10.01244445 8.192-18.20444445 18.20444444-18.20444444z m800.99555556 0h-345.88444445c-10.01244445 0-18.20444445 8.192-18.20444444 18.20444444v345.88444445c0 10.01244445 8.192 18.20444445 18.20444444 18.20444444H912.49777778c10.01244445 0 18.20444445-8.192 18.20444444-18.20444444V111.50222222c0-10.01244445-8.192-18.20444445-18.20444444-18.20444444z m-514.27555556 304.92444444h-227.55555555v-227.55555555h227.55555555v227.55555555z m455.11111111 0h-227.55555555v-227.55555555h227.55555555v227.55555555zM111.50222222 548.40888889h345.88444445c10.01244445 0 18.20444445 8.192 18.20444444 18.20444444V912.49777778c0 10.01244445-8.192 18.20444445-18.20444444 18.20444444H111.50222222a18.24085333 18.24085333 0 0 1-18.20444444-18.20444444v-345.88444445c0-10.01244445 8.192-18.20444445 18.20444444-18.20444444z m800.99555556 0h-345.88444445c-10.01244445 0-18.20444445 8.192-18.20444444 18.20444444V912.49777778c0 10.01244445 8.192 18.20444445 18.20444444 18.20444444H912.49777778c10.01244445 0 18.20444445-8.192 18.20444444-18.20444444v-345.88444445c0-10.01244445-8.192-18.20444445-18.20444444-18.20444444z m-514.27555556 304.92444444h-227.55555555v-227.55555555h227.55555555v227.55555555z m455.11111111 0h-227.55555555v-227.55555555h227.55555555v227.55555555z" fill="#FFFFFF" p-id="1642"></path></svg>