<?xml version="1.0" standalone="no"?><!DOCTYPE svg PUBLIC "-//W3C//DTD SVG 1.1//EN" "http://www.w3.org/Graphics/SVG/1.1/DTD/svg11.dtd"><svg t="1720075897142" class="icon" viewBox="0 0 1289 1024" version="1.1" xmlns="http://www.w3.org/2000/svg" p-id="2317" xmlns:xlink="http://www.w3.org/1999/xlink" width="251.7578125" height="200"><path d="M113.777778 94.814815m75.851852 0l910.222222 0q75.851852 0 75.851852 75.851852l0 644.74074q0 75.851852-75.851852 75.851852l-910.222222 0q-75.851852 0-75.851852-75.851852l0-644.74074q0-75.851852 75.851852-75.851852Z" fill="#F2F4F7" p-id="2318"></path><path d="M113.777778 170.666667a75.851852 75.851852 0 0 1 75.851852-75.851852h910.222222a75.851852 75.851852 0 0 1 75.851852 75.851852v113.777777H189.62963a75.851852 75.851852 0 0 1-75.851852-75.851851z" fill="#FFFFFF" p-id="2319"></path><path d="M113.777778 170.666667a75.851852 75.851852 0 0 1 75.851852-75.851852h227.555555v796.444444H189.62963a75.851852 75.851852 0 0 1-75.851852-75.851852z" fill="#2F3A4F" p-id="2320"></path><path d="M113.777778 170.666667a75.851852 75.851852 0 0 1 75.851852-75.851852h227.555555v189.629629H113.777778V170.666667z m493.037037 341.333333v-37.925926q0-1.877333 0.379259-3.697778 0.341333-1.839407 1.061926-3.565037 0.720593-1.706667 1.763556-3.280592 1.024-1.536 2.351407-2.863408 1.327407-1.327407 2.863407-2.351407 1.554963-1.042963 3.280593-1.763556 1.72563-0.720593 3.565037-1.080889Q623.881481 455.111111 625.777778 455.111111h341.333333q1.877333 0 3.697778 0.379259 1.839407 0.341333 3.565037 1.061926 1.706667 0.720593 3.280593 1.763556 1.554963 1.024 2.863407 2.351407 1.327407 1.327407 2.351407 2.863408 1.042963 1.554963 1.763556 3.280592 0.720593 1.72563 1.080889 3.565037Q986.074074 472.177778 986.074074 474.074074v37.925926q0 1.877333-0.379259 3.697778-0.341333 1.839407-1.061926 3.565037-0.720593 1.706667-1.763556 3.280592-1.024 1.536-2.351407 2.863408-1.327407 1.327407-2.863407 2.351407-1.554963 1.042963-3.280593 1.763556-1.72563 0.720593-3.565037 1.080889Q969.007407 530.962963 967.111111 530.962963H625.777778q-1.877333 0-3.697778-0.379259-1.839407-0.341333-3.565037-1.061926-1.706667-0.720593-3.280593-1.763556-1.554963-1.024-2.863407-2.351407-1.327407-1.327407-2.351407-2.863408-1.042963-1.554963-1.763556-3.280592-0.720593-1.72563-1.080889-3.565037Q606.814815 513.896296 606.814815 512z m0 151.703704v-37.925926q0-1.877333 0.379259-3.697778 0.341333-1.839407 1.061926-3.565037 0.720593-1.706667 1.763556-3.280593 1.024-1.554963 2.351407-2.863407 1.327407-1.327407 2.863407-2.351407 1.554963-1.042963 3.280593-1.763556 1.72563-0.720593 3.565037-1.080889Q623.881481 606.814815 625.777778 606.814815h170.666666q1.877333 0 3.697778 0.379259 1.839407 0.341333 3.565037 1.061926 1.706667 0.720593 3.280593 1.763556 1.554963 1.024 2.863407 2.351407 1.327407 1.327407 2.351408 2.863407 1.042963 1.554963 1.763555 3.280593 0.720593 1.72563 1.080889 3.565037Q815.407407 623.881481 815.407407 625.777778v37.925926q0 1.877333-0.379259 3.697777-0.341333 1.839407-1.061926 3.565038-0.720593 1.706667-1.763555 3.280592-1.024 1.554963-2.351408 2.863408-1.327407 1.327407-2.863407 2.351407-1.554963 1.042963-3.280593 1.763555-1.72563 0.720593-3.565037 1.080889Q798.340741 682.666667 796.444444 682.666667h-170.666666q-1.877333 0-3.697778-0.37926-1.839407-0.341333-3.565037-1.061926-1.706667-0.720593-3.280593-1.763555-1.554963-1.024-2.863407-2.351407-1.327407-1.327407-2.351407-2.863408-1.042963-1.554963-1.763556-3.280592-0.720593-1.72563-1.080889-3.565038Q606.814815 665.6 606.814815 663.703704z m493.037037-464.592593q0 2.332444-0.227556 4.645926t-0.682666 4.608q-0.455111 2.275556-1.137778 4.513185-0.663704 2.218667-1.554963 4.361482-0.891259 2.161778-1.991111 4.209777-1.099852 2.066963-2.389334 3.982223-1.308444 1.953185-2.787555 3.754666-1.460148 1.801481-3.109926 3.45126-1.649778 1.649778-3.451259 3.128889-1.801481 1.460148-3.735704 2.768592-1.934222 1.289481-3.982222 2.389333-2.066963 1.099852-4.209778 1.991112-2.161778 0.891259-4.380444 1.554963-2.23763 0.682667-4.513186 1.137777t-4.608 0.682667Q1054.776889 246.518519 1052.444444 246.518519t-4.645925-0.227556q-2.313481-0.227556-4.608-0.682667-2.275556-0.455111-4.513186-1.137777-2.218667-0.663704-4.361481-1.554963-2.161778-0.891259-4.209778-1.991112-2.066963-1.099852-3.982222-2.389333-1.953185-1.308444-3.754667-2.768592-1.801481-1.479111-3.451259-3.128889-1.649778-1.649778-3.109926-3.45126-1.479111-1.801481-2.787556-3.735703-1.289481-1.934222-2.389333-3.982223-1.099852-2.066963-1.991111-4.209777-0.891259-2.161778-1.554963-4.380445-0.682667-2.23763-1.137778-4.513185t-0.682666-4.608Q1005.037037 201.443556 1005.037037 199.111111t0.227556-4.645926q0.227556-2.313481 0.682666-4.608 0.455111-2.275556 1.137778-4.513185 0.663704-2.218667 1.554963-4.361481 0.891259-2.161778 1.991111-4.209778 1.099852-2.066963 2.389333-3.982222 1.308444-1.953185 2.787556-3.754667 1.460148-1.801481 3.109926-3.451259 1.649778-1.649778 3.451259-3.128889 1.801481-1.460148 3.735704-2.768593 1.934222-1.289481 3.982222-2.389333 2.066963-1.099852 4.209778-1.991111 2.161778-0.891259 4.380444-1.554963 2.23763-0.682667 4.513186-1.137778t4.608-0.682667Q1050.112 151.703704 1052.444444 151.703704t4.645926 0.227555q2.313481 0.227556 4.608 0.682667 2.275556 0.455111 4.513186 1.137778 2.218667 0.663704 4.361481 1.554963 2.161778 0.891259 4.209778 1.991111 2.066963 1.099852 3.982222 2.389333 1.953185 1.308444 3.754667 2.768593 1.801481 1.479111 3.451259 3.128889 1.649778 1.649778 3.109926 3.451259 1.479111 1.801481 2.787555 3.735704 1.289481 1.934222 2.389334 3.982222 1.099852 2.066963 1.991111 4.209778 0.891259 2.161778 1.554963 4.380444 0.682667 2.23763 1.137778 4.513185t0.682666 4.608q0.227556 2.313481 0.227556 4.645926z"  p-id="2321"></path></svg>